<svg width="20" height="20" viewBox="0 0 20 20" fill="none" xmlns="http://www.w3.org/2000/svg">
<path d="M14.0399 10.3457C14.7063 10.3457 15.2927 10.0015 15.5948 9.48096L18.7759 4.03257C19.1046 3.47849 18.6781 2.7901 18.0028 2.7901H4.85216L4.01692 1.11108H1.11133V2.7901H2.88845L6.08726 9.16195L4.8877 11.2103C4.23906 12.3353 5.09207 13.7037 6.44268 13.7037H17.1054V12.0247H6.44268L7.4201 10.3457H14.0399ZM5.69629 4.46911H16.4923L14.0399 8.66664H7.80218L5.69629 4.46911ZM6.44268 14.5432C5.46527 14.5432 4.67445 15.2987 4.67445 16.2222C4.67445 17.1457 5.46527 17.9012 6.44268 17.9012C7.4201 17.9012 8.2198 17.1457 8.2198 16.2222C8.2198 15.2987 7.4201 14.5432 6.44268 14.5432ZM15.3283 14.5432C14.3509 14.5432 13.56 15.2987 13.56 16.2222C13.56 17.1457 14.3509 17.9012 15.3283 17.9012C16.3057 17.9012 17.1054 17.1457 17.1054 16.2222C17.1054 15.2987 16.3057 14.5432 15.3283 14.5432Z" fill="#64748B"/>
</svg>
