<svg width="34" height="34" viewBox="0 0 34 34" fill="none" xmlns="http://www.w3.org/2000/svg">
<path d="M27.5073 9.46188C28.9665 11.0117 29.7499 12.75 29.7499 15.5677C29.7499 20.526 26.2691 24.9701 21.2074 27.1674L19.9423 25.2152C24.6669 22.6595 25.5906 19.3431 25.9589 17.2521C25.1981 17.646 24.2022 17.7834 23.2261 17.6927C20.6705 17.4561 18.656 15.358 18.656 12.75C18.656 11.4349 19.1784 10.1738 20.1082 9.24389C21.0381 8.31402 22.2993 7.79163 23.6143 7.79163C25.1344 7.79163 26.5879 8.48579 27.5073 9.46188ZM13.3406 9.46188C14.7998 11.0117 15.5832 12.75 15.5832 15.5677C15.5832 20.526 12.1025 24.9701 7.04072 27.1674L5.77564 25.2152C10.5002 22.6595 11.4239 19.3431 11.7922 17.2521C11.0315 17.646 10.0356 17.7834 9.05947 17.6927C6.50381 17.4561 4.49072 15.358 4.49072 12.75C4.49072 11.4349 5.01312 10.1738 5.94298 9.24389C6.87285 8.31402 8.13402 7.79163 9.44906 7.79163C10.9691 7.79163 12.4226 8.48579 13.3421 9.46188H13.3406Z" fill="#64748B"/>
</svg>
