<svg width="56" height="56" viewBox="0 0 56 56" fill="none" xmlns="http://www.w3.org/2000/svg">
<path d="M16.3335 30.8518C16.3335 28.3564 16.9411 26.1344 18.1564 24.1856C19.3717 22.2368 20.7085 20.597 22.1668 19.2662C23.6252 17.9353 24.962 16.9191 26.1772 16.2175L28.0002 15.1666V19.8722C28.0002 20.7515 28.304 21.4464 28.9116 21.9569C29.5193 22.4683 30.1998 22.724 30.9533 22.724C31.3665 22.724 31.7617 22.6409 32.1389 22.4745C32.5152 22.3081 32.8613 22.0348 33.1772 21.6546L33.8335 20.8703C35.5835 21.8685 36.9932 23.2526 38.0627 25.0226C39.1321 26.7936 39.6668 28.7367 39.6668 30.8518C39.6668 32.9432 39.1443 34.8501 38.0991 36.5726C37.054 38.2961 35.6807 39.6569 33.9793 40.6551C34.3925 40.0847 34.7148 39.4606 34.9462 38.7828C35.1766 38.106 35.2918 37.3873 35.2918 36.6268C35.2918 35.6762 35.1095 34.7793 34.745 33.9361C34.3804 33.0919 33.8578 32.3371 33.1772 31.6717L28.0002 26.7166L22.8595 31.6717C22.1547 32.3609 21.62 33.1214 21.2554 33.9532C20.8908 34.785 20.7085 35.6762 20.7085 36.6268C20.7085 37.3873 20.8242 38.106 21.0556 38.7828C21.286 39.4606 21.6078 40.0847 22.021 40.6551C20.3196 39.6569 18.9463 38.2961 17.9012 36.5726C16.8561 34.8501 16.3335 32.9432 16.3335 30.8518ZM28.0002 30.7092L31.0991 33.668C31.5123 34.072 31.8283 34.5236 32.047 35.0226C32.2658 35.5217 32.3752 36.0564 32.3752 36.6268C32.3752 37.7913 31.9498 38.7833 31.0991 39.6027C30.2484 40.4231 29.2154 40.8333 28.0002 40.8333C26.7849 40.8333 25.7519 40.4231 24.9012 39.6027C24.0505 38.7833 23.6252 37.7913 23.6252 36.6268C23.6252 36.0802 23.7345 35.5517 23.9533 35.0412C24.172 34.5297 24.488 34.072 24.9012 33.668L28.0002 30.7092Z" fill="#CF0930"/>
<rect x="0.75" y="0.75" width="54.5" height="54.5" rx="27.25" stroke="#CF0930" stroke-width="1.5" stroke-linecap="round" stroke-dasharray="6 6"/>
</svg>
