<svg width="56" height="56" viewBox="0 0 56 56" fill="none" xmlns="http://www.w3.org/2000/svg">
<path d="M14.25 38V34.5C14.25 33.7917 14.4325 33.1404 14.7975 32.5463C15.1617 31.9529 15.6458 31.5 16.25 31.1875C17.5417 30.5417 18.8542 30.0571 20.1875 29.7338C21.5208 29.4113 22.875 29.25 24.25 29.25C25.625 29.25 26.9792 29.4113 28.3125 29.7338C29.6458 30.0571 30.9583 30.5417 32.25 31.1875C32.8542 31.5 33.3383 31.9529 33.7025 32.5463C34.0675 33.1404 34.25 33.7917 34.25 34.5V38H14.25ZM36.75 38V34.25C36.75 33.3333 36.495 32.4529 35.985 31.6088C35.4742 30.7654 34.75 30.0417 33.8125 29.4375C34.875 29.5625 35.875 29.7758 36.8125 30.0775C37.75 30.38 38.625 30.75 39.4375 31.1875C40.1875 31.6042 40.7604 32.0675 41.1562 32.5775C41.5521 33.0883 41.75 33.6458 41.75 34.25V38H36.75ZM24.25 28C22.875 28 21.6979 27.5104 20.7188 26.5312C19.7396 25.5521 19.25 24.375 19.25 23C19.25 21.625 19.7396 20.4479 20.7188 19.4688C21.6979 18.4896 22.875 18 24.25 18C25.625 18 26.8021 18.4896 27.7812 19.4688C28.7604 20.4479 29.25 21.625 29.25 23C29.25 24.375 28.7604 25.5521 27.7812 26.5312C26.8021 27.5104 25.625 28 24.25 28ZM36.75 23C36.75 24.375 36.2604 25.5521 35.2813 26.5312C34.3021 27.5104 33.125 28 31.75 28C31.5208 28 31.2292 27.9742 30.875 27.9225C30.5208 27.87 30.2292 27.8125 30 27.75C30.5625 27.0833 30.9946 26.3437 31.2963 25.5312C31.5988 24.7187 31.75 23.875 31.75 23C31.75 22.125 31.5988 21.2812 31.2963 20.4687C30.9946 19.6562 30.5625 18.9167 30 18.25C30.2917 18.1458 30.5833 18.0779 30.875 18.0463C31.1667 18.0154 31.4583 18 31.75 18C33.125 18 34.3021 18.4896 35.2813 19.4688C36.2604 20.4479 36.75 21.625 36.75 23ZM16.75 35.5H31.75V34.5C31.75 34.2708 31.6929 34.0625 31.5787 33.875C31.4637 33.6875 31.3125 33.5417 31.125 33.4375C30 32.875 28.8646 32.4529 27.7187 32.1712C26.5729 31.8904 25.4167 31.75 24.25 31.75C23.0833 31.75 21.9271 31.8904 20.7812 32.1712C19.6354 32.4529 18.5 32.875 17.375 33.4375C17.1875 33.5417 17.0367 33.6875 16.9225 33.875C16.8075 34.0625 16.75 34.2708 16.75 34.5V35.5ZM24.25 25.5C24.9375 25.5 25.5263 25.255 26.0163 24.765C26.5054 24.2758 26.75 23.6875 26.75 23C26.75 22.3125 26.5054 21.7242 26.0163 21.235C25.5263 20.745 24.9375 20.5 24.25 20.5C23.5625 20.5 22.9742 20.745 22.485 21.235C21.995 21.7242 21.75 22.3125 21.75 23C21.75 23.6875 21.995 24.2758 22.485 24.765C22.9742 25.255 23.5625 25.5 24.25 25.5Z" fill="#CF0930"/>
<rect x="0.75" y="0.75" width="54.5" height="54.5" rx="27.25" stroke="#CF0930" stroke-width="1.5" stroke-linecap="round" stroke-dasharray="6 6"/>
</svg>
