<svg width="50" height="50" viewBox="0 0 50 50" fill="none" xmlns="http://www.w3.org/2000/svg">
<circle r="25" transform="matrix(-1 0 0 1 25 25)" fill="#CF0930"/>
<g clip-path="url(#clip0_36_1016)">
<path fill-rule="evenodd" clip-rule="evenodd" d="M21.672 16.7995C22.5517 16.759 22.8322 16.75 25.0732 16.75C27.3142 16.75 27.5947 16.7597 28.4737 16.7995C29.3527 16.8392 29.9527 16.9795 30.4777 17.1828C31.0275 17.3905 31.5262 17.7152 31.9387 18.1352C32.3587 18.547 32.6827 19.045 32.8897 19.5955C33.0937 20.1205 33.2332 20.7205 33.2737 21.598C33.3142 22.4793 33.3232 22.7598 33.3232 25C33.3232 27.241 33.3135 27.5215 33.2737 28.4012C33.234 29.2787 33.0937 29.8787 32.8897 30.4037C32.6827 30.9543 32.3582 31.4531 31.9387 31.8655C31.5262 32.2855 31.0275 32.6095 30.4777 32.8165C29.9527 33.0205 29.3527 33.16 28.4752 33.2005C27.5947 33.241 27.3142 33.25 25.0732 33.25C22.8322 33.25 22.5517 33.2403 21.672 33.2005C20.7945 33.1608 20.1945 33.0205 19.6695 32.8165C19.1189 32.6095 18.6201 32.2849 18.2077 31.8655C17.788 31.4535 17.4632 30.9549 17.256 30.4045C17.0527 29.8795 16.9132 29.2795 16.8727 28.402C16.8322 27.5207 16.8232 27.2402 16.8232 25C16.8232 22.759 16.833 22.4785 16.8727 21.5995C16.9125 20.7205 17.0527 20.1205 17.256 19.5955C17.4635 19.0451 17.7886 18.5465 18.2085 18.1345C18.6203 17.7149 19.1186 17.3901 19.6687 17.1828C20.1937 16.9795 20.7937 16.84 21.6712 16.7995H21.672ZM28.407 18.2845C27.537 18.2448 27.276 18.2365 25.0732 18.2365C22.8705 18.2365 22.6095 18.2448 21.7395 18.2845C20.9347 18.3213 20.4982 18.4555 20.2072 18.5687C19.8225 18.7187 19.5472 18.8965 19.2585 19.1853C18.9848 19.4515 18.7741 19.7757 18.642 20.134C18.5287 20.425 18.3945 20.8615 18.3577 21.6662C18.318 22.5362 18.3097 22.7972 18.3097 25C18.3097 27.2028 18.318 27.4637 18.3577 28.3337C18.3945 29.1385 18.5287 29.575 18.642 29.866C18.774 30.2238 18.9847 30.5485 19.2585 30.8148C19.5247 31.0885 19.8495 31.2993 20.2072 31.4313C20.4982 31.5445 20.9347 31.6788 21.7395 31.7155C22.6095 31.7553 22.8697 31.7635 25.0732 31.7635C27.2767 31.7635 27.537 31.7553 28.407 31.7155C29.2117 31.6788 29.6482 31.5445 29.9392 31.4313C30.324 31.2813 30.5992 31.1035 30.888 30.8148C31.1617 30.5485 31.3725 30.2238 31.5045 29.866C31.6177 29.575 31.752 29.1385 31.7887 28.3337C31.8285 27.4637 31.8367 27.2028 31.8367 25C31.8367 22.7972 31.8285 22.5362 31.7887 21.6662C31.752 20.8615 31.6177 20.425 31.5045 20.134C31.3545 19.7493 31.1767 19.474 30.888 19.1853C30.6217 18.9116 30.2975 18.7009 29.9392 18.5687C29.6482 18.4555 29.2117 18.3213 28.407 18.2845V18.2845ZM24.0195 27.5432C24.608 27.7882 25.2633 27.8213 25.8734 27.6368C26.4836 27.4523 27.0108 27.0617 27.3649 26.5317C27.7191 26.0017 27.8783 25.3652 27.8153 24.7308C27.7523 24.0965 27.471 23.5037 27.0195 23.0537C26.7317 22.7661 26.3837 22.5459 26.0005 22.4089C25.6173 22.2719 25.2086 22.2215 24.8036 22.2615C24.3987 22.3014 24.0076 22.4306 23.6586 22.6398C23.3096 22.8491 23.0113 23.1331 22.7852 23.4714C22.5591 23.8097 22.4109 24.194 22.3511 24.5965C22.2914 24.999 22.3216 25.4097 22.4396 25.7991C22.5577 26.1886 22.7606 26.547 23.0338 26.8485C23.307 27.1501 23.6436 27.3874 24.0195 27.5432ZM22.0747 22.0015C22.4685 21.6077 22.936 21.2954 23.4505 21.0823C23.9649 20.8692 24.5164 20.7595 25.0732 20.7595C25.6301 20.7595 26.1815 20.8692 26.696 21.0823C27.2105 21.2954 27.678 21.6077 28.0717 22.0015C28.4655 22.3953 28.7779 22.8627 28.991 23.3772C29.2041 23.8917 29.3138 24.4431 29.3138 25C29.3138 25.5569 29.2041 26.1083 28.991 26.6228C28.7779 27.1373 28.4655 27.6047 28.0717 27.9985C27.2765 28.7938 26.1979 29.2405 25.0732 29.2405C23.9486 29.2405 22.87 28.7938 22.0747 27.9985C21.2795 27.2032 20.8327 26.1247 20.8327 25C20.8327 23.8753 21.2795 22.7968 22.0747 22.0015V22.0015ZM30.2542 21.391C30.3518 21.299 30.4299 21.1883 30.484 21.0655C30.538 20.9427 30.5668 20.8103 30.5688 20.6762C30.5708 20.5421 30.5458 20.4089 30.4954 20.2846C30.4449 20.1603 30.3701 20.0474 30.2752 19.9525C30.1804 19.8577 30.0674 19.7828 29.9431 19.7324C29.8188 19.682 29.6857 19.657 29.5515 19.6589C29.4174 19.6609 29.285 19.6897 29.1623 19.7438C29.0395 19.7978 28.9288 19.8759 28.8367 19.9735C28.6577 20.1633 28.5597 20.4153 28.5635 20.6762C28.5673 20.9371 28.6726 21.1862 28.8571 21.3706C29.0416 21.5551 29.2907 21.6604 29.5515 21.6642C29.8124 21.668 30.0645 21.57 30.2542 21.391V21.391Z" fill="white"/>
</g>
<defs>
<clipPath id="clip0_36_1016">
<rect width="18" height="18" fill="white" transform="translate(16.0732 16)"/>
</clipPath>
</defs>
</svg>
