<svg width="56" height="56" viewBox="0 0 56 56" fill="none" xmlns="http://www.w3.org/2000/svg">
<path d="M36.75 34.25V27.75C36.125 27.875 35.5 28 34.875 28H34.25V35.5H21.75V26.75C21.75 23.25 24.5 20.5 28 20.5C28.125 18.875 28.875 17.5 29.875 16.375C29.5 15.875 28.75 15.5 28 15.5C26.625 15.5 25.5 16.625 25.5 18V18.375C21.75 19.5 19.25 22.875 19.25 26.75V34.25L16.75 36.75V38H39.25V36.75L36.75 34.25ZM25.5 39.25C25.5 40.625 26.625 41.75 28 41.75C29.375 41.75 30.5 40.625 30.5 39.25H25.5ZM39.25 21.125C39.25 23.5 37.25 25.5 34.875 25.5C32.5 25.5 30.5 23.5 30.5 21.125C30.5 18.75 32.5 16.75 34.875 16.75C37.25 16.75 39.25 18.75 39.25 21.125Z" fill="#CF0930"/>
<rect x="0.75" y="0.75" width="54.5" height="54.5" rx="27.25" stroke="#CF0930" stroke-width="1.5" stroke-linecap="round" stroke-dasharray="6 6"/>
</svg>
