<svg width="236" height="69" viewBox="0 0 236 69" fill="none" xmlns="http://www.w3.org/2000/svg">
<path d="M13.6023 12.6423C13.483 11.6347 12.9991 10.8525 12.1506 10.2957C11.3021 9.7389 10.2614 9.46049 9.02841 9.46049C8.12689 9.46049 7.33807 9.60633 6.66193 9.89799C5.99242 10.1897 5.46875 10.5907 5.09091 11.1011C4.7197 11.6115 4.53409 12.1916 4.53409 12.8412C4.53409 13.3847 4.66335 13.8521 4.92188 14.2432C5.18703 14.6276 5.52509 14.9491 5.93608 15.2077C6.34706 15.4595 6.77794 15.6684 7.22869 15.8341C7.67945 15.9932 8.09375 16.1224 8.47159 16.2219L10.5398 16.7787C11.0701 16.9179 11.66 17.1101 12.3097 17.3554C12.9659 17.6006 13.5923 17.9354 14.1889 18.3596C14.7921 18.7773 15.2893 19.3142 15.6804 19.9704C16.0715 20.6267 16.267 21.4321 16.267 22.3866C16.267 23.487 15.9787 24.4813 15.402 25.3696C14.8319 26.2578 13.9967 26.9638 12.8963 27.4875C11.8026 28.0112 10.4735 28.273 8.90909 28.273C7.45076 28.273 6.18797 28.0377 5.12074 27.567C4.06013 27.0964 3.22491 26.4401 2.61506 25.5983C2.01184 24.7564 1.67045 23.7787 1.59091 22.665H4.13636C4.20265 23.434 4.46117 24.0703 4.91193 24.5741C5.36932 25.0713 5.94602 25.4425 6.64205 25.6878C7.3447 25.9264 8.10038 26.0457 8.90909 26.0457C9.85038 26.0457 10.6955 25.8933 11.4446 25.5883C12.1937 25.2768 12.7869 24.8459 13.2244 24.2957C13.6619 23.7389 13.8807 23.0893 13.8807 22.3469C13.8807 21.6707 13.6918 21.1205 13.3139 20.6963C12.9361 20.272 12.4389 19.9273 11.8224 19.6622C11.206 19.397 10.5398 19.165 9.82386 18.9662L7.31818 18.2503C5.72727 17.7929 4.4678 17.1399 3.53977 16.2915C2.61174 15.443 2.14773 14.3327 2.14773 12.9605C2.14773 11.8203 2.45597 10.826 3.07244 9.97754C3.69555 9.12242 4.53078 8.45955 5.57812 7.9889C6.6321 7.51163 7.80871 7.27299 9.10795 7.27299C10.4205 7.27299 11.5871 7.50831 12.608 7.97896C13.6288 8.44297 14.4375 9.07934 15.0341 9.88805C15.6373 10.6968 15.9555 11.6148 15.9886 12.6423H13.6023ZM24.7475 28.273C23.7797 28.273 22.9014 28.0907 22.1126 27.7261C21.3237 27.3549 20.6973 26.8213 20.2333 26.1253C19.7693 25.4226 19.5373 24.5741 19.5373 23.5798C19.5373 22.7048 19.7096 21.9955 20.0543 21.452C20.399 20.9018 20.8597 20.4709 21.4364 20.1594C22.0131 19.8478 22.6495 19.6158 23.3455 19.4633C24.0482 19.3042 24.7541 19.1783 25.4634 19.0855C26.3915 18.9662 27.1438 18.8767 27.7205 18.817C28.3039 18.7507 28.7281 18.6414 28.9933 18.4889C29.265 18.3364 29.4009 18.0713 29.4009 17.6934V17.6139C29.4009 16.6328 29.1325 15.8705 28.5955 15.327C28.0652 14.7834 27.2598 14.5116 26.1793 14.5116C25.0591 14.5116 24.1808 14.7569 23.5444 15.2474C22.908 15.738 22.4606 16.2616 22.2021 16.8184L19.9748 16.023C20.3725 15.095 20.9028 14.3724 21.5657 13.8554C22.2352 13.3317 22.9644 12.9671 23.7532 12.7616C24.5487 12.5495 25.3308 12.4434 26.0998 12.4434C26.5903 12.4434 27.1538 12.5031 27.7901 12.6224C28.4331 12.7351 29.0529 12.9704 29.6495 13.3284C30.2527 13.6863 30.7532 14.2266 31.1509 14.9491C31.5487 15.6717 31.7475 16.6395 31.7475 17.8525V27.915H29.4009V25.8469H29.2816C29.1225 26.1783 28.8574 26.5329 28.4862 26.9108C28.1149 27.2886 27.6211 27.6101 27.0046 27.8753C26.3881 28.1404 25.6358 28.273 24.7475 28.273ZM25.1055 26.165C26.0335 26.165 26.8157 25.9827 27.4521 25.6182C28.0951 25.2536 28.579 24.7829 28.9038 24.2062C29.2352 23.6295 29.4009 23.023 29.4009 22.3866V20.2389C29.3015 20.3582 29.0827 20.4676 28.7447 20.567C28.4132 20.6598 28.0288 20.7427 27.5913 20.8156C27.1604 20.8819 26.7395 20.9416 26.3285 20.9946C25.9241 21.041 25.596 21.0808 25.3441 21.1139C24.7343 21.1934 24.1642 21.3227 23.6339 21.5017C23.1102 21.674 22.686 21.9359 22.3612 22.2872C22.043 22.6319 21.8839 23.1025 21.8839 23.6991C21.8839 24.5145 22.1855 25.1309 22.7887 25.5486C23.3986 25.9595 24.1708 26.165 25.1055 26.165ZM38.6271 7.5514V27.915H36.2805V7.5514H38.6271ZM49.5785 28.2332C48.1069 28.2332 46.8375 27.9084 45.7702 27.2588C44.7096 26.6025 43.891 25.6878 43.3143 24.5145C42.7442 23.3345 42.4592 21.9624 42.4592 20.398C42.4592 18.8336 42.7442 17.4548 43.3143 16.2616C43.891 15.0618 44.6931 14.1272 45.7205 13.4577C46.7546 12.7815 47.9611 12.4434 49.3398 12.4434C50.1353 12.4434 50.9208 12.576 51.6964 12.8412C52.4719 13.1063 53.1779 13.5372 53.8143 14.1338C54.4506 14.7238 54.9577 15.5059 55.3356 16.4804C55.7134 17.4548 55.9023 18.6546 55.9023 20.0798V21.0741H44.1296V19.0457H53.516C53.516 18.184 53.3436 17.415 52.9989 16.7389C52.6609 16.0628 52.177 15.5291 51.5472 15.1381C50.9241 14.747 50.1883 14.5514 49.3398 14.5514C48.4052 14.5514 47.5965 14.7834 46.9137 15.2474C46.2376 15.7048 45.7172 16.3014 45.3526 17.0372C44.988 17.773 44.8058 18.5618 44.8058 19.4037V20.7559C44.8058 21.9094 45.0046 22.8871 45.4023 23.6892C45.8067 24.4846 46.3668 25.0912 47.0827 25.5088C47.7987 25.9198 48.6306 26.1253 49.5785 26.1253C50.195 26.1253 50.7518 26.0391 51.2489 25.8667C51.7527 25.6878 52.1869 25.4226 52.5515 25.0713C52.9161 24.7133 53.1978 24.2692 53.3967 23.7389L55.6637 24.3753C55.4251 25.1442 55.024 25.8203 54.4606 26.4037C53.8971 26.9804 53.2011 27.4311 52.3725 27.7559C51.5439 28.0741 50.6126 28.2332 49.5785 28.2332ZM62.8242 7.5514L62.6254 22.1878H60.3185L60.1197 7.5514H62.8242ZM61.4719 28.0741C60.9814 28.0741 60.5605 27.8985 60.2092 27.5471C59.8578 27.1958 59.6822 26.7749 59.6822 26.2844C59.6822 25.7938 59.8578 25.3729 60.2092 25.0216C60.5605 24.6702 60.9814 24.4946 61.4719 24.4946C61.9625 24.4946 62.3834 24.6702 62.7347 25.0216C63.0861 25.3729 63.2617 25.7938 63.2617 26.2844C63.2617 26.6092 63.1789 26.9075 63.0131 27.1792C62.854 27.451 62.6386 27.6698 62.3668 27.8355C62.1017 27.9946 61.8034 28.0741 61.4719 28.0741ZM15.8295 41.5514H18.2955V55.0344C18.2955 56.4264 17.9673 57.6693 17.3111 58.7631C16.6615 59.8502 15.7434 60.7086 14.5568 61.3383C13.3703 61.9614 11.9782 62.273 10.3807 62.273C8.78314 62.273 7.3911 61.9614 6.20455 61.3383C5.01799 60.7086 4.09659 59.8502 3.44034 58.7631C2.79072 57.6693 2.46591 56.4264 2.46591 55.0344V41.5514H4.93182V54.8355C4.93182 55.8298 5.15057 56.7148 5.58807 57.4903C6.02557 58.2593 6.64867 58.8658 7.45739 59.3099C8.27273 59.7474 9.24716 59.9662 10.3807 59.9662C11.5142 59.9662 12.4886 59.7474 13.304 59.3099C14.1193 58.8658 14.7424 58.2593 15.1733 57.4903C15.6108 56.7148 15.8295 55.8298 15.8295 54.8355V41.5514ZM23.1516 67.6423V46.6423H25.4187V49.0684H25.6971C25.8694 48.8033 26.1081 48.4652 26.413 48.0542C26.7246 47.6366 27.1687 47.2654 27.7454 46.9406C28.3287 46.6092 29.1175 46.4434 30.1119 46.4434C31.3978 46.4434 32.5314 46.7649 33.5124 47.4079C34.4935 48.0509 35.2591 48.9624 35.8093 50.1423C36.3595 51.3222 36.6346 52.7143 36.6346 54.3184C36.6346 55.9359 36.3595 57.3379 35.8093 58.5244C35.2591 59.7043 34.4968 60.6191 33.5224 61.2687C32.5479 61.9117 31.4244 62.2332 30.1516 62.2332C29.1706 62.2332 28.3851 62.0708 27.7951 61.746C27.2051 61.4146 26.7511 61.04 26.4329 60.6224C26.1147 60.1982 25.8694 59.8469 25.6971 59.5684H25.4982V67.6423H23.1516ZM25.4585 54.2787C25.4585 55.4321 25.6275 56.4496 25.9656 57.3312C26.3036 58.2062 26.7975 58.8923 27.4471 59.3895C28.0967 59.88 28.8922 60.1253 29.8335 60.1253C30.8145 60.1253 31.6332 59.8667 32.2894 59.3497C32.9523 58.826 33.4495 58.1234 33.7809 57.2417C34.119 56.3535 34.288 55.3658 34.288 54.2787C34.288 53.2048 34.1223 52.237 33.7908 51.3753C33.466 50.5069 32.9722 49.8208 32.3093 49.317C31.6531 48.8066 30.8278 48.5514 29.8335 48.5514C28.8789 48.5514 28.0768 48.7934 27.4272 49.2773C26.7776 49.7545 26.2871 50.424 25.9556 51.2858C25.6242 52.1409 25.4585 53.1385 25.4585 54.2787ZM47.1062 46.6423V48.6309H39.1914V46.6423H47.1062ZM41.4982 42.9832H43.8448V57.54C43.8448 58.2029 43.9409 58.7001 44.1332 59.0315C44.332 59.3563 44.5839 59.5751 44.8888 59.6878C45.2004 59.7938 45.5285 59.8469 45.8732 59.8469C46.1317 59.8469 46.3439 59.8336 46.5096 59.8071C46.6753 59.7739 46.8079 59.7474 46.9073 59.7275L47.3846 61.8355C47.2255 61.8952 47.0034 61.9548 46.7184 62.0145C46.4334 62.0808 46.0721 62.1139 45.6346 62.1139C44.9717 62.1139 44.3221 61.9714 43.6857 61.6863C43.056 61.4013 42.5323 60.9671 42.1147 60.3838C41.7037 59.8005 41.4982 59.0647 41.4982 58.1764V42.9832ZM56.9265 62.2332C55.5477 62.2332 54.338 61.9051 53.2972 61.2488C52.2631 60.5926 51.4544 59.6745 50.8711 58.4946C50.2944 57.3147 50.006 55.9359 50.006 54.3582C50.006 52.7673 50.2944 51.3786 50.8711 50.192C51.4544 49.0055 52.2631 48.0841 53.2972 47.4278C54.338 46.7716 55.5477 46.4434 56.9265 46.4434C58.3053 46.4434 59.5117 46.7716 60.5458 47.4278C61.5865 48.0841 62.3952 49.0055 62.9719 50.192C63.5553 51.3786 63.8469 52.7673 63.8469 54.3582C63.8469 55.9359 63.5553 57.3147 62.9719 58.4946C62.3952 59.6745 61.5865 60.5926 60.5458 61.2488C59.5117 61.9051 58.3053 62.2332 56.9265 62.2332ZM56.9265 60.1253C57.9738 60.1253 58.8356 59.8568 59.5117 59.3199C60.1879 58.7829 60.6883 58.077 61.0131 57.202C61.338 56.327 61.5004 55.3791 61.5004 54.3582C61.5004 53.3374 61.338 52.3862 61.0131 51.5045C60.6883 50.6229 60.1879 49.9103 59.5117 49.3667C58.8356 48.8232 57.9738 48.5514 56.9265 48.5514C55.8791 48.5514 55.0174 48.8232 54.3413 49.3667C53.6651 49.9103 53.1647 50.6229 52.8398 51.5045C52.515 52.3862 52.3526 53.3374 52.3526 54.3582C52.3526 55.3791 52.515 56.327 52.8398 57.202C53.1647 58.077 53.6651 58.7829 54.3413 59.3199C55.0174 59.8568 55.8791 60.1253 56.9265 60.1253Z" fill="#0F172A"/>
<path d="M91.284 68.915C86.91 68.915 83.589 67.7 81.321 65.27C79.107 62.84 78 59.357 78 54.821V50.204H86.424V55.226C86.424 58.952 87.963 60.815 91.041 60.815C92.553 60.815 93.687 60.356 94.443 59.438C95.253 58.466 95.658 56.792 95.658 54.416V49.799C95.658 47.207 95.199 45.371 94.281 44.291C93.363 43.157 91.878 42.59 89.826 42.59H86.829V34.49H90.069C91.851 34.49 93.174 34.031 94.038 33.113C94.956 32.195 95.415 30.656 95.415 28.496V24.365C95.415 22.421 95.01 20.99 94.2 20.072C93.39 19.154 92.31 18.695 90.96 18.695C88.098 18.695 86.667 20.45 86.667 23.96V27.686H78.243V24.689C78.243 20.153 79.35 16.67 81.564 14.24C83.832 11.81 87.072 10.595 91.284 10.595C95.55 10.595 98.79 11.81 101.004 14.24C103.218 16.616 104.325 20.072 104.325 24.608V26.633C104.325 29.711 103.812 32.195 102.786 34.085C101.76 35.921 100.167 37.244 98.007 38.054V38.216C100.329 39.08 102.003 40.484 103.029 42.428C104.055 44.372 104.568 46.856 104.568 49.88V54.902C104.568 59.438 103.434 62.921 101.166 65.351C98.952 67.727 95.658 68.915 91.284 68.915Z" fill="#CF0930"/>
<path d="M124.209 68.915C119.835 68.915 116.487 67.673 114.165 65.189C111.843 62.705 110.682 59.195 110.682 54.659V24.851C110.682 20.315 111.843 16.805 114.165 14.321C116.487 11.837 119.835 10.595 124.209 10.595C128.583 10.595 131.931 11.837 134.253 14.321C136.575 16.805 137.736 20.315 137.736 24.851V54.659C137.736 59.195 136.575 62.705 134.253 65.189C131.931 67.673 128.583 68.915 124.209 68.915ZM124.209 60.815C127.287 60.815 128.826 58.952 128.826 55.226V24.284C128.826 20.558 127.287 18.695 124.209 18.695C121.131 18.695 119.592 20.558 119.592 24.284V55.226C119.592 58.952 121.131 60.815 124.209 60.815Z" fill="#CF0930"/>
<path d="M152.111 42.914C149.303 42.914 147.17 42.131 145.712 40.565C144.254 38.999 143.525 36.758 143.525 33.842V19.667C143.525 16.751 144.254 14.51 145.712 12.944C147.17 11.378 149.303 10.595 152.111 10.595C154.919 10.595 157.052 11.378 158.51 12.944C159.968 14.51 160.697 16.751 160.697 19.667V33.842C160.697 36.758 159.968 38.999 158.51 40.565C157.052 42.131 154.919 42.914 152.111 42.914ZM172.685 11.405H178.355L156.404 68.105H150.734L172.685 11.405ZM152.111 37.811C154.055 37.811 155.027 36.623 155.027 34.247V19.262C155.027 16.886 154.055 15.698 152.111 15.698C150.167 15.698 149.195 16.886 149.195 19.262V34.247C149.195 36.623 150.167 37.811 152.111 37.811ZM176.978 68.915C174.17 68.915 172.037 68.132 170.579 66.566C169.121 65 168.392 62.759 168.392 59.843V45.668C168.392 42.752 169.121 40.511 170.579 38.945C172.037 37.379 174.17 36.596 176.978 36.596C179.786 36.596 181.919 37.379 183.377 38.945C184.835 40.511 185.564 42.752 185.564 45.668V59.843C185.564 62.759 184.835 65 183.377 66.566C181.919 68.132 179.786 68.915 176.978 68.915ZM176.978 63.812C178.922 63.812 179.894 62.624 179.894 60.248V45.263C179.894 42.887 178.922 41.699 176.978 41.699C175.034 41.699 174.062 42.887 174.062 45.263V60.248C174.062 62.624 175.034 63.812 176.978 63.812Z" fill="#CF0930"/>
<path d="M205.917 62.2332C204.538 62.2332 203.328 61.9051 202.287 61.2488C201.253 60.5926 200.444 59.6745 199.861 58.4946C199.284 57.3147 198.996 55.9359 198.996 54.3582C198.996 52.7673 199.284 51.3786 199.861 50.192C200.444 49.0055 201.253 48.0841 202.287 47.4278C203.328 46.7716 204.538 46.4434 205.917 46.4434C207.295 46.4434 208.502 46.7716 209.536 47.4278C210.577 48.0841 211.385 49.0055 211.962 50.192C212.545 51.3786 212.837 52.7673 212.837 54.3582C212.837 55.9359 212.545 57.3147 211.962 58.4946C211.385 59.6745 210.577 60.5926 209.536 61.2488C208.502 61.9051 207.295 62.2332 205.917 62.2332ZM205.917 60.1253C206.964 60.1253 207.826 59.8568 208.502 59.3199C209.178 58.7829 209.678 58.077 210.003 57.202C210.328 56.327 210.49 55.3791 210.49 54.3582C210.49 53.3374 210.328 52.3862 210.003 51.5045C209.678 50.6229 209.178 49.9103 208.502 49.3667C207.826 48.8232 206.964 48.5514 205.917 48.5514C204.869 48.5514 204.007 48.8232 203.331 49.3667C202.655 49.9103 202.155 50.6229 201.83 51.5045C201.505 52.3862 201.343 53.3374 201.343 54.3582C201.343 55.3791 201.505 56.327 201.83 57.202C202.155 58.077 202.655 58.7829 203.331 59.3199C204.007 59.8568 204.869 60.1253 205.917 60.1253ZM223.47 46.6423V48.6309H215.237V46.6423H223.47ZM217.703 61.915V44.5344C217.703 43.6594 217.909 42.9302 218.32 42.3469C218.731 41.7635 219.264 41.326 219.92 41.0344C220.577 40.7427 221.269 40.5969 221.999 40.5969C222.575 40.5969 223.046 40.6433 223.411 40.7361C223.775 40.8289 224.047 40.915 224.226 40.9946L223.55 43.023C223.43 42.9832 223.265 42.9335 223.053 42.8738C222.847 42.8142 222.575 42.7844 222.237 42.7844C221.462 42.7844 220.902 42.9799 220.557 43.371C220.219 43.7621 220.05 44.3355 220.05 45.0912V61.915H217.703ZM233.81 46.6423V48.6309H225.577V46.6423H233.81ZM228.043 61.915V44.5344C228.043 43.6594 228.248 42.9302 228.659 42.3469C229.07 41.7635 229.604 41.326 230.26 41.0344C230.917 40.7427 231.609 40.5969 232.338 40.5969C232.915 40.5969 233.386 40.6433 233.75 40.7361C234.115 40.8289 234.387 40.915 234.566 40.9946L233.89 43.023C233.77 42.9832 233.605 42.9335 233.392 42.8738C233.187 42.8142 232.915 42.7844 232.577 42.7844C231.801 42.7844 231.241 42.9799 230.897 43.371C230.559 43.7621 230.39 44.3355 230.39 45.0912V61.915H228.043Z" fill="#0F172A"/>
</svg>
