<svg width="56" height="56" viewBox="0 0 56 56" fill="none" xmlns="http://www.w3.org/2000/svg">
<path d="M26.75 15.5L35.8725 18.35C36.1269 18.4294 36.3493 18.5881 36.5072 18.8029C36.665 19.0176 36.7501 19.2772 36.75 19.5438V21.75H39.25C39.5815 21.75 39.8995 21.8817 40.1339 22.1161C40.3683 22.3505 40.5 22.6685 40.5 23V33C40.5 33.3315 40.3683 33.6495 40.1339 33.8839C39.8995 34.1183 39.5815 34.25 39.25 34.25L35.225 34.2512C34.7413 34.8887 34.1537 35.4512 33.475 35.9137L26.75 40.5L20.025 35.915C19.0157 35.2268 18.1897 34.3025 17.6189 33.2224C17.0482 32.1423 16.7499 30.9391 16.75 29.7175V19.5438C16.7502 19.2774 16.8354 19.0181 16.9932 18.8036C17.151 18.5891 17.3733 18.4306 17.6275 18.3513L26.75 15.5ZM26.75 18.1175L19.25 20.4625V29.7175C19.2498 30.4828 19.4253 31.2379 19.763 31.9247C20.1006 32.6114 20.5914 33.2115 21.1975 33.6787L21.4338 33.8488L26.75 37.475L31.4775 34.25H25.5C25.1685 34.25 24.8505 34.1183 24.6161 33.8839C24.3817 33.6495 24.25 33.3315 24.25 33V23C24.25 22.6685 24.3817 22.3505 24.6161 22.1161C24.8505 21.8817 25.1685 21.75 25.5 21.75H34.25V20.4625L26.75 18.1175ZM26.75 28V31.75H38V28H26.75ZM26.75 25.5H38V24.25H26.75V25.5Z" fill="#CF0930"/>
<rect x="0.75" y="0.75" width="54.5" height="54.5" rx="27.25" stroke="#CF0930" stroke-width="1.5" stroke-linecap="round" stroke-dasharray="6 6"/>
</svg>
