<svg width="20" height="20" viewBox="0 0 20 20" fill="none" xmlns="http://www.w3.org/2000/svg">
<path d="M9.72217 11.1111C9.06556 11.1111 8.41538 10.9818 7.80875 10.7305C7.20212 10.4792 6.65093 10.1109 6.18663 9.64662C5.72234 9.18232 5.35404 8.63113 5.10277 8.0245C4.8515 7.41787 4.72217 6.76769 4.72217 6.11108C4.72217 5.45447 4.8515 4.80429 5.10277 4.19767C5.35404 3.59104 5.72234 3.03984 6.18663 2.57555C6.65093 2.11126 7.20212 1.74296 7.80875 1.49169C8.41538 1.24041 9.06556 1.11108 9.72217 1.11108C11.0483 1.11108 12.32 1.63787 13.2577 2.57555C14.1954 3.51323 14.7222 4.785 14.7222 6.11108C14.7222 7.43717 14.1954 8.70894 13.2577 9.64662C12.32 10.5843 11.0483 11.1111 9.72217 11.1111ZM9.72217 9.44442C10.6062 9.44442 11.4541 9.09323 12.0792 8.46811C12.7043 7.84299 13.0555 6.99514 13.0555 6.11108C13.0555 5.22703 12.7043 4.37918 12.0792 3.75406C11.4541 3.12894 10.6062 2.77775 9.72217 2.77775C8.83811 2.77775 7.99027 3.12894 7.36515 3.75406C6.74002 4.37918 6.38883 5.22703 6.38883 6.11108C6.38883 6.99514 6.74002 7.84299 7.36515 8.46811C7.99027 9.09323 8.83811 9.44442 9.72217 9.44442Z" fill="#64748B"/>
<path d="M17.2222 18.6112H15.3472V16.9445C15.3472 16.2815 15.0509 15.6456 14.5234 15.1767C13.996 14.7079 13.2806 14.4445 12.5347 14.4445H6.90967C6.16375 14.4445 5.44838 14.7079 4.92093 15.1767C4.39348 15.6456 4.09717 16.2815 4.09717 16.9445V18.6112H2.22217V16.9445C2.22217 15.8394 2.71603 14.7796 3.5951 13.9982C4.47418 13.2168 5.66647 12.7778 6.90967 12.7778H12.5347C13.7779 12.7778 14.9702 13.2168 15.8492 13.9982C16.7283 14.7796 17.2222 15.8394 17.2222 16.9445V18.6112Z" fill="#64748B"/>
</svg>
