<svg width="24" height="25" viewBox="0 0 24 25" fill="none" xmlns="http://www.w3.org/2000/svg">
<path d="M13.3 17.6901C13.1 17.4901 13.004 17.2484 13.012 16.9651C13.0207 16.6818 13.125 16.4401 13.325 16.2401L16.15 13.4151H5C4.71667 13.4151 4.479 13.3191 4.287 13.1271C4.09567 12.9358 4 12.6984 4 12.4151C4 12.1318 4.09567 11.8941 4.287 11.7021C4.479 11.5108 4.71667 11.4151 5 11.4151H16.15L13.3 8.56509C13.1 8.36509 13 8.12742 13 7.85209C13 7.57742 13.1 7.34009 13.3 7.14009C13.5 6.94009 13.7377 6.84009 14.013 6.84009C14.2877 6.84009 14.525 6.94009 14.725 7.14009L19.3 11.7151C19.4 11.8151 19.471 11.9234 19.513 12.0401C19.5543 12.1568 19.575 12.2818 19.575 12.4151C19.575 12.5484 19.5543 12.6734 19.513 12.7901C19.471 12.9068 19.4 13.0151 19.3 13.1151L14.7 17.7151C14.5167 17.8984 14.2877 17.9901 14.013 17.9901C13.7377 17.9901 13.5 17.8901 13.3 17.6901Z" fill="white"/>
</svg>
