<svg width="50" height="50" viewBox="0 0 50 50" fill="none" xmlns="http://www.w3.org/2000/svg">
<circle cx="25" cy="25" r="25" fill="#CF0930"/>
<g clip-path="url(#clip0_36_1012)">
<path d="M33.8054 19.7028C33.1791 19.9803 32.5064 20.1678 31.7991 20.2526C32.5289 19.8159 33.0748 19.1287 33.3351 18.3191C32.6495 18.7263 31.8991 19.013 31.1166 19.1666C30.5904 18.6047 29.8934 18.2323 29.1339 18.1072C28.3743 17.982 27.5947 18.1112 26.9161 18.4745C26.2374 18.8378 25.6977 19.4151 25.3807 20.1166C25.0638 20.8181 24.9873 21.6046 25.1631 22.3541C23.7739 22.2843 22.4148 21.9232 21.1742 21.2942C19.9335 20.6653 18.839 19.7824 17.9616 18.7031C17.6616 19.2206 17.4891 19.8206 17.4891 20.4596C17.4888 21.0348 17.6305 21.6012 17.9015 22.1086C18.1726 22.616 18.5647 23.0486 19.0431 23.3681C18.4883 23.3504 17.9458 23.2005 17.4606 22.9308V22.9758C17.4606 23.7826 17.7397 24.5646 18.2505 25.1891C18.7614 25.8135 19.4726 26.242 20.2634 26.4018C19.7487 26.5411 19.2091 26.5616 18.6854 26.4618C18.9085 27.156 19.3431 27.7631 19.9284 28.198C20.5137 28.6329 21.2203 28.8739 21.9494 28.8873C20.7118 29.8589 19.1833 30.3859 17.6099 30.3836C17.3312 30.3836 17.0527 30.3674 16.7759 30.3348C18.373 31.3617 20.2321 31.9067 22.1309 31.9046C28.5584 31.9046 32.0721 26.5811 32.0721 21.9641C32.0721 21.8141 32.0684 21.6626 32.0616 21.5126C32.7451 21.0183 33.3351 20.4062 33.8039 19.7051L33.8054 19.7028V19.7028Z" fill="white"/>
</g>
<defs>
<clipPath id="clip0_36_1012">
<rect width="18" height="18" fill="white" transform="translate(16.0732 16)"/>
</clipPath>
</defs>
</svg>
